<?xml version="1.0" encoding="UTF-8"?><svg id="Logo" xmlns="http://www.w3.org/2000/svg" width="167.56mm" height="68mm" xmlns:xlink="http://www.w3.org/1999/xlink" viewBox="0 0 474.97 192.76"><defs><style>.cls-1{fill:url(#linear-gradient-5);}.cls-2{fill:url(#linear-gradient-6);}.cls-3{fill:url(#linear-gradient-4);}.cls-4{fill:url(#linear-gradient-3);}.cls-5{fill:url(#linear-gradient-2);}.cls-6{fill:url(#linear-gradient);}.cls-7{fill:#5f6062;}</style><linearGradient id="linear-gradient" x1="92.4" y1="89.04" x2="296.32" y2="89.04" gradientUnits="userSpaceOnUse"><stop offset="0" stop-color="#e5f1d4"/><stop offset=".09" stop-color="#deeecc"/><stop offset=".24" stop-color="#cee7b7"/><stop offset=".41" stop-color="#b2db94"/><stop offset=".61" stop-color="#8cca65"/><stop offset=".73" stop-color="#72bf44"/><stop offset=".76" stop-color="#6abd44"/><stop offset=".81" stop-color="#55b847"/><stop offset=".88" stop-color="#32b14b"/><stop offset=".94" stop-color="#03a650"/><stop offset=".95" stop-color="#00a651"/></linearGradient><linearGradient id="linear-gradient-2" x1="90.34" y1="45.1" x2="321.26" y2="45.1" xlink:href="#linear-gradient"/><linearGradient id="linear-gradient-3" x1="91.25" y1="66.92" x2="302.28" y2="66.92" xlink:href="#linear-gradient"/><linearGradient id="linear-gradient-4" x1="65.93" y1="-106.57" x2="172.4" y2="-32.02" gradientTransform="translate(217.89 220.58) rotate(-7.42) scale(1.13 .88) skewX(-11.58)" gradientUnits="userSpaceOnUse"><stop offset=".1" stop-color="#72bf44"/><stop offset=".16" stop-color="#6aba47"/><stop offset=".24" stop-color="#55ae52"/><stop offset=".35" stop-color="#329b62"/><stop offset=".47" stop-color="#03807a"/><stop offset=".47" stop-color="#02807b"/><stop offset=".63" stop-color="#017873"/><stop offset=".86" stop-color="#01635f"/><stop offset=".95" stop-color="#015a57"/></linearGradient><linearGradient id="linear-gradient-5" x1="36.88" y1="-144.08" x2="147.35" y2="-144.08" gradientTransform="translate(238.24 180.71) rotate(-3.09) scale(1.11 .9) skewX(-13.69)" gradientUnits="userSpaceOnUse"><stop offset="0" stop-color="#72bf44"/><stop offset=".07" stop-color="#6aba47"/><stop offset=".19" stop-color="#55ae52"/><stop offset=".32" stop-color="#329b62"/><stop offset=".48" stop-color="#03807a"/><stop offset=".48" stop-color="#02807b"/><stop offset=".63" stop-color="#017873"/><stop offset=".86" stop-color="#01635f"/><stop offset=".95" stop-color="#015a57"/></linearGradient><linearGradient id="linear-gradient-6" x1="318.41" y1="42.46" x2="444.62" y2="115.33" gradientUnits="userSpaceOnUse"><stop offset="0" stop-color="#72bf44"/><stop offset=".12" stop-color="#5fb44c"/><stop offset=".37" stop-color="#309a64"/><stop offset=".59" stop-color="#02807b"/><stop offset=".7" stop-color="#017873"/><stop offset=".88" stop-color="#01635f"/><stop offset=".94" stop-color="#015a57"/></linearGradient></defs><path class="cls-7" d="M54.59,192.1c-6.47,0-10.34-3.61-11.92-9.96-7.4,6.03-15.19,10.62-24.96,10.62-10.78,0-17.71-8.43-17.71-17.31,0-13.32,15.07-19.46,25.15-24.06l15.49-7.17c1.56-.8,1.26-3.42,1.26-5.16,0-10.78-3.65-13.64-13.86-13.28-6.71.24-13.58,4.25-16.7,11.67l-9.06-5.7c6.72-9.05,19.93-11.11,27.65-11.11,17.49,0,25.51,5.53,25.51,23.78v26.16c0,3.96-.24,18.77,6.75,21.54h-7.59ZM42.05,149.67c-9.46,4.6-27.4,9.29-27.4,21.98,0,5.86,2.35,12.24,12.27,12.24,6.14,0,10.92-4.41,15.13-8.21v-26.01Z"/><path class="cls-7" d="M257.48,125.6v-4.31h-13.65v-19.98l-13.28,5.02v70.3c0,11.8,3.8,15.58,16.07,15.51l7.81-.03c-8.99-4.21-10.6-8.84-10.6-18.77v-47.74h13.65Z"/><path class="cls-7" d="M180.52,120.64c-8.45,0-14.93,2.84-20.84,8.95v-43.3h-19.89s5.16,2.87,6.38,8.3c.75,3.52.75,12.67.75,16.91v80.61h12.76v-9.62c5.38,7,12.4,10.27,21.75,10.27,19.21,0,33.39-14.95,33.39-35.84s-15.11-36.27-34.31-36.27ZM177.92,188.48c-5.94,0-12.48-3.2-15.7-8.38-1.61-2.59-2.26-5.55-2.54-8.87v-27.1c1.12-12.63,7.15-18.92,18.1-18.92,12.95,0,21.94,11.11,21.94,31.24s-7.77,32.03-21.8,32.03Z"/><path class="cls-7" d="M122.87,135.69c-3.49-8.03-8.94-10.68-13.71-10.68-11.98,0-21.95,10.14-21.95,30.12s7.91,30.86,24.12,30.86c6.6,0,12.73-2.91,18.28-8.91l3.08,3.54c-6.76,7.99-15.53,12.13-25.98,12.13-21.82,0-35.5-14.2-35.5-34.33,0-21.97,15.88-38.95,38.12-37.71,9.5.52,18.59,4.73,22.58,9.36l-9.03,5.62Z"/><path class="cls-6" d="M92.4,62.5s116.27-2.71,180.67,13.63c19.83,4.91,21.81,17.17,22.02,28.37.12,4.77,1.22,11.25,1.22,11.25,0,0-4-20.42-24.98-27.33-70.33-23.81-178.94-25.92-178.94-25.92Z"/><path class="cls-5" d="M315.84,50.51c5.37-4.85,15.73-24.44-22.75-21-96.32,6.36-202.75,21.47-202.75,21.47,0,0,149.48-15.63,204.61-9.02,19.34,2.29,13.35,17.2,12.48,19.15,3.21-5.19,7.29-9.44,8.36-10.52.02-.02.04-.05.06-.07Z"/><path class="cls-4" d="M240.51,50.89c-48.53-1.56-149.26,5.73-149.26,5.73,0,0,103.51-5.18,181.42,6.62,19.33,2.66,24.22,12.17,24.84,19.93.9-3.38,2.17-7.2,3.99-11.36,4.74-15.41-11.67-21.86-60.99-20.92Z"/><path class="cls-3" d="M297.61,121.57s7.68,27.28,43.07,35.17c55.4,12.87,97.69-20.48,97.69-20.48,0,0-17.59,39.9-66.79,41.68-62.38.32-73.96-56.37-73.96-56.37Z"/><path class="cls-1" d="M316.06,50.31s-5,4.83-8.72,10.92c-4.61,12.05,7.94,22.05,28.22,22.97,65-.45,93.3-32.85,93.3-32.85L442.44,0s-16.4,31.34-57.36,48.96c-32.14,14.75-65.09,16.03-69.45,8.89-2.62-4.29.44-7.54.44-7.54Z"/><path class="cls-2" d="M301.55,71.67c-2.39,9.42-4.43,37.94,51.85,35.59,74.36-5.5,121.57-59.58,121.57-59.58l-19.47,48.81s-46.21,46.98-112.98,38.14c-45.87-6.2-47.13-37.77-47.13-37.77,0,0-.19-10.75,6.17-25.2Z"/></svg>